<?xml version="1.0" standalone="no"?>
<!DOCTYPE svg PUBLIC "-//W3C//DTD SVG 1.1//EN" "http://www.w3.org/Graphics/SVG/1.1/DTD/svg11.dtd">
<svg xmlns:svg="http://www.w3.org/2000/svg" xmlns="http://www.w3.org/2000/svg"
  xmlns:xlink="http://www.w3.org/1999/xlink" version="1.1" width="297.0022mm" height="210.0072mm"
  viewBox="0.0000 0.0000 297.0022 210.0072">
  <title>SVG Image created as bezel-brd.svg date 2024/11/26 14:05:36 </title>
  <desc>Image generated by PCBNEW </desc>
  <g style="fill:#000000; fill-opacity:1.0000;stroke:#000000; stroke-opacity:1.0000;
stroke-linecap:round; stroke-linejoin:round;" transform="translate(0 0) scale(1 1)">
    <path style="fill:#F2EDA1; fill-opacity:1.0000; stroke:none;fill-rule:evenodd;" d="M 32.0795,3.2500
32.0795,3.5909
32.2500,3.5909
32.4205,3.5909
32.4205,3.2500
32.4205,2.9091
32.5909,2.9091
32.7614,2.9091
32.7614,3.2500
32.7614,3.5909
32.8466,3.5909
32.9319,3.5909
32.9319,3.6762
32.9319,3.7614
32.7614,3.7614
32.5909,3.7614
32.5909,3.6762
32.5909,3.5909
32.5057,3.5909
32.4205,3.5909
32.4205,3.6762
32.4205,3.7614
32.1648,3.7614
31.9091,3.7614
31.9091,3.6762
31.9091,3.5909
31.8238,3.5909
31.7386,3.5909
31.7386,3.2500
31.7386,2.9091
31.9091,2.9091
32.0795,2.9091
Z" />
    <path style="fill:#F2EDA1; fill-opacity:1.0000; stroke:none;fill-rule:evenodd;" d="M 33.7842,2.7386
33.7842,2.9091
33.9547,2.9091
34.1252,2.9091
34.1252,2.9943
34.1252,3.0795
33.9547,3.0795
33.7842,3.0795
33.7842,3.3352
33.7842,3.5909
33.8695,3.5909
33.9547,3.5909
33.9547,3.5057
33.9547,3.4205
34.0399,3.4205
34.1252,3.4205
34.1252,3.5057
34.1252,3.5909
34.0399,3.5909
33.9547,3.5909
33.9547,3.6762
33.9547,3.7614
33.7842,3.7614
33.6138,3.7614
33.6138,3.6762
33.6138,3.5909
33.5285,3.5909
33.4433,3.5909
33.4433,3.3352
33.4433,3.0795
33.3581,3.0795
33.2728,3.0795
33.2728,2.9943
33.2728,2.9091
33.3581,2.9091
33.4433,2.9091
33.4433,2.8238
33.4433,2.7386
33.5285,2.7386
33.6138,2.7386
33.6138,2.6534
33.6138,2.5681
33.6990,2.5681
33.7842,2.5681
Z" />
    <path style="fill:#F2EDA1; fill-opacity:1.0000; stroke:none;fill-rule:evenodd;" d="M 31.2272,2.6534
31.2272,2.7386
31.3124,2.7386
31.3977,2.7386
31.3977,2.8238
31.3977,2.9091
31.4829,2.9091
31.5681,2.9091
31.5681,3.1648
31.5681,3.4205
31.4829,3.4205
31.3977,3.4205
31.3977,3.5057
31.3977,3.5909
31.3124,3.5909
31.2272,3.5909
31.2272,3.6762
31.2272,3.7614
30.9715,3.7614
30.7158,3.7614
30.7158,3.6762
30.7158,3.5909
30.6305,3.5909
30.5453,3.5909
30.5453,3.5057
30.5453,3.4205
30.4601,3.4205
30.3748,3.4205
30.3748,3.1648
30.3748,2.9091
30.4601,2.9091
30.5453,2.9091
30.7158,2.9091
30.7158,3.1648
30.7158,3.4205
30.8010,3.4205
30.8862,3.4205
30.8862,3.5057
30.8862,3.5909
30.9715,3.5909
31.0567,3.5909
31.0567,3.5057
31.0567,3.4205
31.1419,3.4205
31.2272,3.4205
31.2272,3.1648
31.2272,2.9091
31.1419,2.9091
31.0567,2.9091
31.0567,2.8238
31.0567,2.7386
30.9715,2.7386
30.8862,2.7386
30.8862,2.8238
30.8862,2.9091
30.8010,2.9091
30.7158,2.9091
30.5453,2.9091
30.5453,2.8238
30.5453,2.7386
30.6305,2.7386
30.7158,2.7386
30.7158,2.6534
30.7158,2.5681
30.9715,2.5681
31.2272,2.5681
Z" />
    <path style="fill:#F2EDA1; fill-opacity:1.0000; stroke:none;fill-rule:evenodd;" d="M 37.7413,4.1465
37.7413,4.2327
37.6551,4.2327
37.5689,4.2327
37.5689,4.6638
37.5689,5.0949
37.6551,5.0949
37.7413,5.0949
37.7413,5.1811
37.7413,5.2673
37.3965,5.2673
37.0516,5.2673
37.0516,5.1811
37.0516,5.0949
37.1378,5.0949
37.2240,5.0949
37.2240,4.6638
37.2240,4.2327
37.1378,4.2327
37.0516,4.2327
37.0516,4.1465
37.0516,4.0603
37.3965,4.0603
37.7413,4.0603
Z" />
    <path style="fill:#F2EDA1; fill-opacity:1.0000; stroke:none;fill-rule:evenodd;" d="M 40.5003,4.1465
40.5003,4.2327
40.4141,4.2327
40.3279,4.2327
40.3279,4.6638
40.3279,5.0949
40.4141,5.0949
40.5003,5.0949
40.5003,5.1811
40.5003,5.2673
40.1555,5.2673
39.8106,5.2673
39.8106,5.1811
39.8106,5.0949
39.8968,5.0949
39.9830,5.0949
39.9830,4.6638
39.9830,4.2327
39.8968,4.2327
39.8106,4.2327
39.8106,4.1465
39.8106,4.0603
40.1555,4.0603
40.5003,4.0603
Z" />
    <path style="fill:#F2EDA1; fill-opacity:1.0000; stroke:none;fill-rule:evenodd;" d="M 35.8445,4.1465
35.8445,4.2327
35.9308,4.2327
36.0170,4.2327
36.0170,4.3189
36.0170,4.4051
36.1032,4.4051
36.1894,4.4051
36.1894,4.3189
36.1894,4.2327
36.2756,4.2327
36.3618,4.2327
36.3618,4.1465
36.3618,4.0603
36.5343,4.0603
36.7067,4.0603
36.7067,4.6638
36.7067,5.2673
36.5343,5.2673
36.3618,5.2673
36.3618,5.0087
36.3618,4.7500
36.2756,4.7500
36.1894,4.7500
36.1894,4.8362
36.1894,4.9224
36.1032,4.9224
36.0170,4.9224
36.0170,4.8362
36.0170,4.7500
35.9308,4.7500
35.8445,4.7500
35.8445,5.0087
35.8445,5.2673
35.6721,5.2673
35.4997,5.2673
35.4997,4.6638
35.4997,4.0603
35.6721,4.0603
35.8445,4.0603
Z" />
    <path style="fill:#F2EDA1; fill-opacity:1.0000; stroke:none;fill-rule:evenodd;" d="M 39.1208,4.1465
39.1208,4.2327
39.2071,4.2327
39.2933,4.2327
39.2933,4.3189
39.2933,4.4051
39.3795,4.4051
39.4657,4.4051
39.4657,4.6638
39.4657,4.9224
39.3795,4.9224
39.2933,4.9224
39.2933,5.0087
39.2933,5.0949
39.2071,5.0949
39.1208,5.0949
39.1208,5.1811
39.1208,5.2673
38.6897,5.2673
38.2587,5.2673
38.2587,5.1811
38.2587,5.0949
38.3449,5.0949
38.4311,5.0949
38.4311,4.6638
38.7760,4.6638
38.7760,5.0949
38.8622,5.0949
38.9484,5.0949
38.9484,5.0087
38.9484,4.9224
39.0346,4.9224
39.1208,4.9224
39.1208,4.6638
39.1208,4.4051
39.0346,4.4051
38.9484,4.4051
38.9484,4.3189
38.9484,4.2327
38.8622,4.2327
38.7760,4.2327
38.7760,4.6638
38.4311,4.6638
38.4311,4.2327
38.3449,4.2327
38.2587,4.2327
38.2587,4.1465
38.2587,4.0603
38.6897,4.0603
39.1208,4.0603
Z" />
    <path style="fill:#F2EDA1; fill-opacity:1.0000; stroke:none;fill-rule:evenodd;" d="M 44.8217,2.9821
44.8217,3.0714
44.9110,3.0714
45.0004,3.0714
45.0004,3.4286
45.0004,3.7859
44.8217,3.7859
44.6431,3.7859
44.6431,3.4286
44.6431,3.0714
44.4645,3.0714
44.2859,3.0714
44.2859,3.4286
44.2859,3.7859
44.1072,3.7859
43.9286,3.7859
43.9286,3.3393
43.9286,2.8928
44.3752,2.8928
44.8217,2.8928
Z" />
    <path style="fill:#F2EDA1; fill-opacity:1.0000; stroke:none;fill-rule:evenodd;" d="M 43.3928,2.6248
43.3928,2.7141
43.3034,2.7141
43.2141,2.7141
43.2141,3.1607
43.2141,3.6072
43.3034,3.6072
43.3928,3.6072
43.3928,3.6966
43.3928,3.7859
43.0355,3.7859
42.6783,3.7859
42.6783,3.6966
42.6783,3.6072
42.7676,3.6072
42.8569,3.6072
42.8569,3.1607
42.8569,2.7141
42.7676,2.7141
42.6783,2.7141
42.6783,2.6248
42.6783,2.5355
43.0355,2.5355
43.3928,2.5355
Z" />
    <path style="fill:#F2EDA1; fill-opacity:1.0000; stroke:none;fill-rule:evenodd;" d="M 66.5795,3.2500
66.5795,3.5909
66.7500,3.5909
66.9205,3.5909
66.9205,3.2500
66.9205,2.9091
67.0909,2.9091
67.2614,2.9091
67.2614,3.2500
67.2614,3.5909
67.3466,3.5909
67.4319,3.5909
67.4319,3.6762
67.4319,3.7614
67.2614,3.7614
67.0909,3.7614
67.0909,3.6762
67.0909,3.5909
67.0057,3.5909
66.9205,3.5909
66.9205,3.6762
66.9205,3.7614
66.6648,3.7614
66.4091,3.7614
66.4091,3.6762
66.4091,3.5909
66.3238,3.5909
66.2386,3.5909
66.2386,3.2500
66.2386,2.9091
66.4091,2.9091
66.5795,2.9091
Z" />
    <path style="fill:#F2EDA1; fill-opacity:1.0000; stroke:none;fill-rule:evenodd;" d="M 68.2842,2.7386
68.2842,2.9091
68.4547,2.9091
68.6252,2.9091
68.6252,2.9943
68.6252,3.0795
68.4547,3.0795
68.2842,3.0795
68.2842,3.3352
68.2842,3.5909
68.3695,3.5909
68.4547,3.5909
68.4547,3.5057
68.4547,3.4205
68.5399,3.4205
68.6252,3.4205
68.6252,3.5057
68.6252,3.5909
68.5399,3.5909
68.4547,3.5909
68.4547,3.6762
68.4547,3.7614
68.2842,3.7614
68.1138,3.7614
68.1138,3.6762
68.1138,3.5909
68.0285,3.5909
67.9433,3.5909
67.9433,3.3352
67.9433,3.0795
67.8581,3.0795
67.7728,3.0795
67.7728,2.9943
67.7728,2.9091
67.8581,2.9091
67.9433,2.9091
67.9433,2.8238
67.9433,2.7386
68.0285,2.7386
68.1138,2.7386
68.1138,2.6534
68.1138,2.5681
68.1990,2.5681
68.2842,2.5681
Z" />
    <path style="fill:#F2EDA1; fill-opacity:1.0000; stroke:none;fill-rule:evenodd;" d="M 65.7272,2.6534
65.7272,2.7386
65.8124,2.7386
65.8977,2.7386
65.8977,2.8238
65.8977,2.9091
65.9829,2.9091
66.0681,2.9091
66.0681,3.1648
66.0681,3.4205
65.9829,3.4205
65.8977,3.4205
65.8977,3.5057
65.8977,3.5909
65.8124,3.5909
65.7272,3.5909
65.7272,3.6762
65.7272,3.7614
65.4715,3.7614
65.2158,3.7614
65.2158,3.6762
65.2158,3.5909
65.1305,3.5909
65.0453,3.5909
65.0453,3.5057
65.0453,3.4205
64.9601,3.4205
64.8748,3.4205
64.8748,3.1648
64.8748,2.9091
64.9601,2.9091
65.0453,2.9091
65.2158,2.9091
65.2158,3.1648
65.2158,3.4205
65.3010,3.4205
65.3862,3.4205
65.3862,3.5057
65.3862,3.5909
65.4715,3.5909
65.5567,3.5909
65.5567,3.5057
65.5567,3.4205
65.6419,3.4205
65.7272,3.4205
65.7272,3.1648
65.7272,2.9091
65.6419,2.9091
65.5567,2.9091
65.5567,2.8238
65.5567,2.7386
65.4715,2.7386
65.3862,2.7386
65.3862,2.8238
65.3862,2.9091
65.3010,2.9091
65.2158,2.9091
65.0453,2.9091
65.0453,2.8238
65.0453,2.7386
65.1305,2.7386
65.2158,2.7386
65.2158,2.6534
65.2158,2.5681
65.4715,2.5681
65.7272,2.5681
Z" />
    <path style="fill:#F2EDA1; fill-opacity:1.0000; stroke:none;fill-rule:evenodd;" d="M 21.0830,57.8233
21.0830,58.1236
20.4825,58.1236
19.8820,58.1236
19.8820,57.8233
19.8820,57.5231
20.4825,57.5231
21.0830,57.5231
Z" />
    <path style="fill:#F2EDA1; fill-opacity:1.0000; stroke:none;fill-rule:evenodd;" d="M 21.0830,59.9250
21.0830,61.1259
21.3832,61.1259
21.6835,61.1259
21.6835,61.4262
21.6835,61.7264
20.4825,61.7264
19.2816,61.7264
19.2816,61.4262
19.2816,61.1259
19.5818,61.1259
19.8820,61.1259
19.8820,60.2252
19.8820,59.3245
19.5818,59.3245
19.2816,59.3245
19.2816,59.0243
19.2816,58.7241
20.1823,58.7241
21.0830,58.7241
Z" />
    <path style="fill:#F2EDA1; fill-opacity:1.0000; stroke:none;fill-rule:evenodd;" d="M 36.6953,58.1236
36.6953,58.7241
36.3950,58.7241
36.0948,58.7241
36.0948,58.4238
36.0948,58.1236
35.7946,58.1236
35.4943,58.1236
35.4943,59.6248
35.4943,61.1259
35.7946,61.1259
36.0948,61.1259
36.0948,61.4262
36.0948,61.7264
34.8939,61.7264
33.6929,61.7264
33.6929,61.4262
33.6929,61.1259
33.9931,61.1259
34.2934,61.1259
34.2934,59.6248
34.2934,58.1236
33.9931,58.1236
33.6929,58.1236
33.6929,58.4238
33.6929,58.7241
33.3927,58.7241
33.0924,58.7241
33.0924,58.1236
33.0924,57.5231
34.8939,57.5231
36.6953,57.5231
Z" />
    <path style="fill:#F2EDA1; fill-opacity:1.0000; stroke:none;fill-rule:evenodd;" d="M 31.2910,59.0243
31.2910,59.3245
31.5913,59.3245
31.8915,59.3245
31.8915,60.2252
31.8915,61.1259
31.5913,61.1259
31.2910,61.1259
31.2910,61.4262
31.2910,61.7264
30.0901,61.7264
28.8891,61.7264
28.8891,61.4262
28.8891,61.1259
28.5889,61.1259
28.2887,61.1259
28.2887,60.2252
29.4896,60.2252
29.4896,61.1259
30.0901,61.1259
30.6905,61.1259
30.6905,60.2252
30.6905,59.3245
30.0901,59.3245
29.4896,59.3245
29.4896,60.2252
28.2887,60.2252
28.2887,59.3245
28.5889,59.3245
28.8891,59.3245
28.8891,59.0243
28.8891,58.7241
30.0901,58.7241
31.2910,58.7241
Z" />
    <path style="fill:#F2EDA1; fill-opacity:1.0000; stroke:none;fill-rule:evenodd;" d="M 60.1137,59.0243
60.1137,59.3245
60.4139,59.3245
60.7142,59.3245
60.7142,59.9250
60.7142,60.5255
59.5132,60.5255
58.3123,60.5255
58.3123,60.8257
58.3123,61.1259
59.2130,61.1259
60.1137,61.1259
60.1137,61.4262
60.1137,61.7264
58.9128,61.7264
57.7118,61.7264
57.7118,61.4262
57.7118,61.1259
57.4116,61.1259
57.1113,61.1259
57.1113,60.2252
57.1113,59.6248
58.3123,59.6248
58.3123,59.9250
58.9128,59.9250
59.5132,59.9250
59.5132,59.6248
59.5132,59.3245
58.9128,59.3245
58.3123,59.3245
58.3123,59.6248
57.1113,59.6248
57.1113,59.3245
57.4116,59.3245
57.7118,59.3245
57.7118,59.0243
57.7118,58.7241
58.9128,58.7241
60.1137,58.7241
Z" />
    <path style="fill:#F2EDA1; fill-opacity:1.0000; stroke:none;fill-rule:evenodd;" d="M 26.4872,59.0243
26.4872,59.3245
26.7875,59.3245
27.0877,59.3245
27.0877,59.6248
27.0877,59.9250
26.4872,59.9250
25.8868,59.9250
25.8868,59.6248
25.8868,59.3245
25.2863,59.3245
24.6858,59.3245
24.6858,60.2252
24.6858,61.1259
25.2863,61.1259
25.8868,61.1259
25.8868,60.8257
25.8868,60.5255
26.4872,60.5255
27.0877,60.5255
27.0877,60.8257
27.0877,61.1259
26.7875,61.1259
26.4872,61.1259
26.4872,61.4262
26.4872,61.7264
25.2863,61.7264
24.0853,61.7264
24.0853,61.4262
24.0853,61.1259
23.7851,61.1259
23.4849,61.1259
23.4849,60.2252
23.4849,59.3245
23.7851,59.3245
24.0853,59.3245
24.0853,59.0243
24.0853,58.7241
25.2863,58.7241
26.4872,58.7241
Z" />
    <path style="fill:#F2EDA1; fill-opacity:1.0000; stroke:none;fill-rule:evenodd;" d="M 50.5061,59.0243
50.5061,59.3245
50.8064,59.3245
51.1066,59.3245
51.1066,59.6248
51.1066,59.9250
50.5061,59.9250
49.9057,59.9250
49.9057,59.6248
49.9057,59.3245
49.3052,59.3245
48.7047,59.3245
48.7047,60.2252
48.7047,61.1259
49.3052,61.1259
49.9057,61.1259
49.9057,60.8257
49.9057,60.5255
50.5061,60.5255
51.1066,60.5255
51.1066,60.8257
51.1066,61.1259
50.8064,61.1259
50.5061,61.1259
50.5061,61.4262
50.5061,61.7264
49.3052,61.7264
48.1043,61.7264
48.1043,61.4262
48.1043,61.1259
47.8040,61.1259
47.5038,61.1259
47.5038,60.2252
47.5038,59.3245
47.8040,59.3245
48.1043,59.3245
48.1043,59.0243
48.1043,58.7241
49.3052,58.7241
50.5061,58.7241
Z" />
    <path style="fill:#F2EDA1; fill-opacity:1.0000; stroke:none;fill-rule:evenodd;" d="M 39.0972,59.0243
39.0972,59.3245
39.3974,59.3245
39.6976,59.3245
39.6976,59.0243
39.6976,58.7241
40.5983,58.7241
41.4991,58.7241
41.4991,59.0243
41.4991,59.3245
41.7993,59.3245
42.0995,59.3245
42.0995,59.9250
42.0995,60.5255
41.4991,60.5255
40.8986,60.5255
40.8986,59.9250
40.8986,59.3245
40.5983,59.3245
40.2981,59.3245
40.2981,59.6248
40.2981,59.9250
39.9979,59.9250
39.6976,59.9250
39.6976,60.5255
39.6976,61.1259
39.9979,61.1259
40.2981,61.1259
40.2981,61.4262
40.2981,61.7264
39.0972,61.7264
37.8962,61.7264
37.8962,61.4262
37.8962,61.1259
38.1965,61.1259
38.4967,61.1259
38.4967,60.2252
38.4967,59.3245
38.1965,59.3245
37.8962,59.3245
37.8962,59.0243
37.8962,58.7241
38.4967,58.7241
39.0972,58.7241
Z" />
    <path style="fill:#F2EDA1; fill-opacity:1.0000; stroke:none;fill-rule:evenodd;" d="M 63.1161,59.0243
63.1161,59.3245
63.4163,59.3245
63.7165,59.3245
63.7165,59.0243
63.7165,58.7241
64.6173,58.7241
65.5180,58.7241
65.5180,59.0243
65.5180,59.3245
65.8182,59.3245
66.1184,59.3245
66.1184,59.9250
66.1184,60.5255
65.5180,60.5255
64.9175,60.5255
64.9175,59.9250
64.9175,59.3245
64.6173,59.3245
64.3170,59.3245
64.3170,59.6248
64.3170,59.9250
64.0168,59.9250
63.7165,59.9250
63.7165,60.5255
63.7165,61.1259
64.0168,61.1259
64.3170,61.1259
64.3170,61.4262
64.3170,61.7264
63.1161,61.7264
61.9151,61.7264
61.9151,61.4262
61.9151,61.1259
62.2154,61.1259
62.5156,61.1259
62.5156,60.2252
62.5156,59.3245
62.2154,59.3245
61.9151,59.3245
61.9151,59.0243
61.9151,58.7241
62.5156,58.7241
63.1161,58.7241
Z" />
    <path style="fill:#F2EDA1; fill-opacity:1.0000; stroke:none;fill-rule:evenodd;" d="M 15.0782,59.0243
15.0782,59.3245
15.3785,59.3245
15.6787,59.3245
15.6787,59.0243
15.6787,58.7241
16.5794,58.7241
17.4801,58.7241
17.4801,59.0243
17.4801,59.3245
17.7804,59.3245
18.0806,59.3245
18.0806,59.9250
18.0806,60.5255
17.7804,60.5255
17.4801,60.5255
17.4801,60.8257
17.4801,61.1259
16.5794,61.1259
15.6787,61.1259
15.6787,61.4262
15.6787,61.7264
15.9790,61.7264
16.2792,61.7264
16.2792,62.0267
16.2792,62.3269
15.0782,62.3269
13.8773,62.3269
13.8773,62.0267
13.8773,61.7264
14.1775,61.7264
14.4778,61.7264
14.4778,60.5255
14.4778,59.9250
15.6787,59.9250
15.6787,60.5255
16.2792,60.5255
16.8797,60.5255
16.8797,59.9250
16.8797,59.3245
16.2792,59.3245
15.6787,59.3245
15.6787,59.9250
14.4778,59.9250
14.4778,59.3245
14.1775,59.3245
13.8773,59.3245
13.8773,59.0243
13.8773,58.7241
14.4778,58.7241
15.0782,58.7241
Z" />
    <path style="fill:#F2EDA1; fill-opacity:1.0000; stroke:none;fill-rule:evenodd;" d="M 45.7024,59.0243
45.7024,59.3245
46.0026,59.3245
46.3028,59.3245
46.3028,60.2252
46.3028,61.1259
46.6031,61.1259
46.9033,61.1259
46.9033,61.4262
46.9033,61.7264
46.3028,61.7264
45.7024,61.7264
45.7024,61.4262
45.7024,61.1259
45.4021,61.1259
45.1019,61.1259
45.1019,61.4262
45.1019,61.7264
44.2012,61.7264
43.3005,61.7264
43.3005,61.4262
43.3005,61.1259
43.0002,61.1259
42.7000,61.1259
42.7000,60.8257
43.9009,60.8257
43.9009,61.1259
44.5014,61.1259
45.1019,61.1259
45.1019,60.8257
45.1019,60.5255
44.5014,60.5255
43.9009,60.5255
43.9009,60.8257
42.7000,60.8257
42.7000,60.5255
43.0002,60.5255
43.3005,60.5255
43.3005,60.2252
43.3005,59.9250
44.2012,59.9250
45.1019,59.9250
45.1019,59.6248
45.1019,59.3245
44.2012,59.3245
43.3005,59.3245
43.3005,59.0243
43.3005,58.7241
44.5014,58.7241
45.7024,58.7241
Z" />
    <path style="fill:#F2EDA1; fill-opacity:1.0000; stroke:none;fill-rule:evenodd;" d="M 54.1090,58.7241
54.1090,59.9250
54.4092,59.9250
54.7095,59.9250
54.7095,59.6248
54.7095,59.3245
55.0097,59.3245
55.3099,59.3245
55.3099,59.0243
55.3099,58.7241
55.9104,58.7241
56.5109,58.7241
56.5109,59.0243
56.5109,59.3245
56.2106,59.3245
55.9104,59.3245
55.9104,59.6248
55.9104,59.9250
55.6102,59.9250
55.3099,59.9250
55.3099,60.2252
55.3099,60.5255
55.6102,60.5255
55.9104,60.5255
55.9104,60.8257
55.9104,61.1259
56.2106,61.1259
56.5109,61.1259
56.5109,61.4262
56.5109,61.7264
55.9104,61.7264
55.3099,61.7264
55.3099,61.4262
55.3099,61.1259
55.0097,61.1259
54.7095,61.1259
54.7095,60.8257
54.7095,60.5255
54.4092,60.5255
54.1090,60.5255
54.1090,61.1259
54.1090,61.7264
53.2083,61.7264
52.3076,61.7264
52.3076,61.4262
52.3076,61.1259
52.6078,61.1259
52.9080,61.1259
52.9080,59.6248
52.9080,58.1236
52.6078,58.1236
52.3076,58.1236
52.3076,57.8233
52.3076,57.5231
53.2083,57.5231
54.1090,57.5231
Z" />
    <path style="fill:#F2EDA1; fill-opacity:1.0000; stroke:none;fill-rule:evenodd;" d="M 61.7804,2.6898
61.7804,2.7698
61.6204,2.7698
61.4603,2.7698
61.4603,2.6898
61.4603,2.6098
61.6204,2.6098
61.7804,2.6098
Z" />
    <path style="fill:#F2EDA1; fill-opacity:1.0000; stroke:none;fill-rule:evenodd;" d="M 61.7804,3.2500
61.7804,3.5701
61.8604,3.5701
61.9405,3.5701
61.9405,3.6501
61.9405,3.7302
61.6204,3.7302
61.3003,3.7302
61.3003,3.6501
61.3003,3.5701
61.3803,3.5701
61.4603,3.5701
61.4603,3.3300
61.4603,3.0899
61.3803,3.0899
61.3003,3.0899
61.3003,3.0099
61.3003,2.9299
61.5403,2.9299
61.7804,2.9299
Z" />
    <path style="fill:#F2EDA1; fill-opacity:1.0000; stroke:none;fill-rule:evenodd;" d="M 58.8995,3.2500
58.8995,3.5701
59.0595,3.5701
59.2196,3.5701
59.2196,3.2500
59.2196,2.9299
59.3796,2.9299
59.5397,2.9299
59.5397,3.2500
59.5397,3.5701
59.6197,3.5701
59.6997,3.5701
59.6997,3.6501
59.6997,3.7302
59.5397,3.7302
59.3796,3.7302
59.3796,3.6501
59.3796,3.5701
59.2996,3.5701
59.2196,3.5701
59.2196,3.6501
59.2196,3.7302
58.9795,3.7302
58.7394,3.7302
58.7394,3.6501
58.7394,3.5701
58.6594,3.5701
58.5794,3.5701
58.5794,3.2500
58.5794,2.9299
58.7394,2.9299
58.8995,2.9299
Z" />
    <path style="fill:#F2EDA1; fill-opacity:1.0000; stroke:none;fill-rule:evenodd;" d="M 63.2209,3.0099
63.2209,3.0899
63.3009,3.0899
63.3809,3.0899
63.3809,3.3300
63.3809,3.5701
63.3009,3.5701
63.2209,3.5701
63.2209,3.6501
63.2209,3.7302
62.9008,3.7302
62.5807,3.7302
62.5807,3.6501
62.5807,3.5701
62.7407,3.5701
62.9008,3.5701
63.0608,3.5701
63.0608,3.3300
63.0608,3.0899
62.9008,3.0899
62.7407,3.0899
62.7407,3.3300
62.7407,3.5701
62.5807,3.5701
62.5006,3.5701
62.4206,3.5701
62.4206,3.3300
62.4206,3.0899
62.5006,3.0899
62.5807,3.0899
62.5807,3.0099
62.5807,2.9299
62.9008,2.9299
63.2209,2.9299
Z" />
    <path style="fill:#F2EDA1; fill-opacity:1.0000; stroke:none;fill-rule:evenodd;" d="M 57.9392,2.6898
57.9392,2.7698
58.0192,2.7698
58.0992,2.7698
58.0992,2.8499
58.0992,2.9299
58.1793,2.9299
58.2593,2.9299
58.2593,3.3300
58.2593,3.7302
58.0992,3.7302
57.9392,3.7302
57.9392,3.5701
57.9392,3.4101
57.7791,3.4101
57.6191,3.4101
57.6191,3.5701
57.6191,3.7302
57.4590,3.7302
57.2990,3.7302
57.2990,3.3300
57.2990,3.2500
57.6191,3.2500
57.7791,3.2500
57.9392,3.2500
57.9392,3.0899
57.9392,2.9299
57.7791,2.9299
57.6191,2.9299
57.6191,3.0899
57.6191,3.2500
57.2990,3.2500
57.2990,3.0899
57.2990,2.9299
57.3790,2.9299
57.4590,2.9299
57.4590,2.8499
57.4590,2.7698
57.5391,2.7698
57.6191,2.7698
57.6191,2.6898
57.6191,2.6098
57.7791,2.6098
57.9392,2.6098
Z" />
    <path style="fill:#F2EDA1; fill-opacity:1.0000; stroke:none;fill-rule:evenodd;" d="M 60.8201,3.0899
60.8201,3.5701
60.9001,3.5701
60.9802,3.5701
60.9802,3.6501
60.9802,3.7302
60.8201,3.7302
60.6600,3.7302
60.6600,3.6501
60.6600,3.5701
60.5800,3.5701
60.5000,3.5701
60.5000,3.6501
60.5000,3.7302
60.2599,3.7302
60.0198,3.7302
60.0198,3.6501
60.0198,3.5701
60.1799,3.5701
60.3399,3.5701
60.5000,3.5701
60.5000,3.4101
60.5000,3.2500
60.3399,3.2500
60.1799,3.2500
60.1799,3.4101
60.1799,3.5701
60.0198,3.5701
59.9398,3.5701
59.8598,3.5701
59.8598,3.4101
59.8598,3.2500
59.9398,3.2500
60.0198,3.2500
60.0198,3.1700
60.0198,3.0899
60.2599,3.0899
60.5000,3.0899
60.5000,2.9299
60.5000,2.7698
60.4200,2.7698
60.3399,2.7698
60.3399,2.6898
60.3399,2.6098
60.5800,2.6098
60.8201,2.6098
Z" />
    <path style="fill:#F2EDA1; fill-opacity:1.0000; stroke:none;fill-rule:evenodd;" d="M 15.1418,3.0915
15.1418,3.5669
15.3003,3.5669
15.4587,3.5669
15.4587,3.0915
15.4587,2.6162
15.6172,2.6162
15.7756,2.6162
15.7756,3.1708
15.7756,3.7254
15.3003,3.7254
14.8249,3.7254
14.8249,3.1708
14.8249,2.6162
14.9834,2.6162
15.1418,2.6162
Z" />
    <path style="fill:#F2EDA1; fill-opacity:1.0000; stroke:none;fill-rule:evenodd;" d="M 21.9553,3.0123
21.9553,3.0915
22.0345,3.0915
22.1138,3.0915
22.1138,3.3292
22.1138,3.5669
22.0345,3.5669
21.9553,3.5669
21.9553,3.6461
21.9553,3.7254
21.6384,3.7254
21.3215,3.7254
21.3215,3.6461
21.3215,3.5669
21.2423,3.5669
21.1630,3.5669
21.1630,3.3292
21.4799,3.3292
21.4799,3.5669
21.6384,3.5669
21.7968,3.5669
21.7968,3.3292
21.7968,3.0915
21.6384,3.0915
21.4799,3.0915
21.4799,3.3292
21.1630,3.3292
21.1630,3.0915
21.2423,3.0915
21.3215,3.0915
21.3215,3.0123
21.3215,2.9331
21.6384,2.9331
21.9553,2.9331
Z" />
    <path style="fill:#F2EDA1; fill-opacity:1.0000; stroke:none;fill-rule:evenodd;" d="M 24.4905,3.0123
24.4905,3.0915
24.5698,3.0915
24.6490,3.0915
24.6490,3.2500
24.6490,3.4085
24.3321,3.4085
24.0152,3.4085
24.0152,3.4877
24.0152,3.5669
24.2529,3.5669
24.4905,3.5669
24.4905,3.6461
24.4905,3.7254
24.1736,3.7254
23.8567,3.7254
23.8567,3.6461
23.8567,3.5669
23.7775,3.5669
23.6983,3.5669
23.6983,3.3292
23.6983,3.1708
24.0152,3.1708
24.0152,3.2500
24.1736,3.2500
24.3321,3.2500
24.3321,3.1708
24.3321,3.0915
24.1736,3.0915
24.0152,3.0915
24.0152,3.1708
23.6983,3.1708
23.6983,3.0915
23.7775,3.0915
23.8567,3.0915
23.8567,3.0123
23.8567,2.9331
24.1736,2.9331
24.4905,2.9331
Z" />
    <path style="fill:#F2EDA1; fill-opacity:1.0000; stroke:none;fill-rule:evenodd;" d="M 22.7476,3.0915
22.7476,3.2500
22.8268,3.2500
22.9060,3.2500
22.9060,3.1708
22.9060,3.0915
22.9852,3.0915
23.0645,3.0915
23.0645,3.1708
23.0645,3.2500
23.1437,3.2500
23.2229,3.2500
23.2229,3.0915
23.2229,2.9331
23.3814,2.9331
23.5398,2.9331
23.5398,3.2500
23.5398,3.5669
23.4606,3.5669
23.3814,3.5669
23.3814,3.6461
23.3814,3.7254
23.2229,3.7254
23.0645,3.7254
23.0645,3.6461
23.0645,3.5669
22.9852,3.5669
22.9060,3.5669
22.9060,3.6461
22.9060,3.7254
22.7476,3.7254
22.5891,3.7254
22.5891,3.6461
22.5891,3.5669
22.5099,3.5669
22.4307,3.5669
22.4307,3.2500
22.4307,2.9331
22.5891,2.9331
22.7476,2.9331
Z" />
    <path style="fill:#F2EDA1; fill-opacity:1.0000; stroke:none;fill-rule:evenodd;" d="M 20.8461,2.6954
20.8461,2.7746
20.9254,2.7746
21.0046,2.7746
21.0046,2.9331
21.0046,3.0915
20.9254,3.0915
20.8461,3.0915
20.8461,3.1708
20.8461,3.2500
20.6085,3.2500
20.3708,3.2500
20.3708,3.4085
20.3708,3.5669
20.4500,3.5669
20.5292,3.5669
20.5292,3.6461
20.5292,3.7254
20.2123,3.7254
19.8954,3.7254
19.8954,3.6461
19.8954,3.5669
19.9746,3.5669
20.0539,3.5669
20.0539,3.1708
20.0539,2.9331
20.3708,2.9331
20.3708,3.0915
20.5292,3.0915
20.6877,3.0915
20.6877,2.9331
20.6877,2.7746
20.5292,2.7746
20.3708,2.7746
20.3708,2.9331
20.0539,2.9331
20.0539,2.7746
19.9746,2.7746
19.8954,2.7746
19.8954,2.6954
19.8954,2.6162
20.3708,2.6162
20.8461,2.6162
Z" />
    <path style="fill:#F2EDA1; fill-opacity:1.0000; stroke:none;fill-rule:evenodd;" d="M 25.2828,3.0123
25.2828,3.0915
25.3620,3.0915
25.4413,3.0915
25.4413,3.0123
25.4413,2.9331
25.6789,2.9331
25.9166,2.9331
25.9166,3.0123
25.9166,3.0915
25.9959,3.0915
26.0751,3.0915
26.0751,3.2500
26.0751,3.4085
25.9166,3.4085
25.7582,3.4085
25.7582,3.2500
25.7582,3.0915
25.6789,3.0915
25.5997,3.0915
25.5997,3.1708
25.5997,3.2500
25.5205,3.2500
25.4413,3.2500
25.4413,3.4085
25.4413,3.5669
25.5205,3.5669
25.5997,3.5669
25.5997,3.6461
25.5997,3.7254
25.2828,3.7254
24.9659,3.7254
24.9659,3.6461
24.9659,3.5669
25.0451,3.5669
25.1244,3.5669
25.1244,3.3292
25.1244,3.0915
25.0451,3.0915
24.9659,3.0915
24.9659,3.0123
24.9659,2.9331
25.1244,2.9331
25.2828,2.9331
Z" />
    <path style="fill:#F2EDA1; fill-opacity:1.0000; stroke:none;fill-rule:evenodd;" d="M 19.7370,2.6954
19.7370,2.7746
19.6577,2.7746
19.5785,2.7746
19.5785,2.8539
19.5785,2.9331
19.4993,2.9331
19.4201,2.9331
19.4201,3.0123
19.4201,3.0915
19.3408,3.0915
19.2616,3.0915
19.2616,3.1708
19.2616,3.2500
19.1824,3.2500
19.1032,3.2500
19.1032,3.3292
19.1032,3.4085
19.0239,3.4085
18.9447,3.4085
18.9447,3.4877
18.9447,3.5669
18.8655,3.5669
18.7862,3.5669
18.7862,3.6461
18.7862,3.7254
18.7070,3.7254
18.6278,3.7254
18.6278,3.5669
18.6278,3.4085
18.7070,3.4085
18.7862,3.4085
18.7862,3.3292
18.7862,3.2500
18.8655,3.2500
18.9447,3.2500
18.9447,3.1708
18.9447,3.0915
19.0239,3.0915
19.1032,3.0915
19.1032,3.0123
19.1032,2.9331
19.1824,2.9331
19.2616,2.9331
19.2616,2.8539
19.2616,2.7746
19.3408,2.7746
19.4201,2.7746
19.4201,2.6954
19.4201,2.6162
19.5785,2.6162
19.7370,2.6162
Z" />
    <path style="fill:#F2EDA1; fill-opacity:1.0000; stroke:none;fill-rule:evenodd;" d="M 18.3109,2.6954
18.3109,2.7746
18.3901,2.7746
18.4693,2.7746
18.4693,2.9331
18.4693,3.0915
18.3901,3.0915
18.3109,3.0915
18.3109,3.1708
18.3109,3.2500
18.3901,3.2500
18.4693,3.2500
18.4693,3.4085
18.4693,3.5669
18.3901,3.5669
18.3109,3.5669
18.3109,3.6461
18.3109,3.7254
17.8355,3.7254
17.3602,3.7254
17.3602,3.6461
17.3602,3.5669
17.4394,3.5669
17.5186,3.5669
17.5186,3.4085
17.8355,3.4085
17.8355,3.5669
17.9940,3.5669
18.1524,3.5669
18.1524,3.4085
18.1524,3.2500
17.9940,3.2500
17.8355,3.2500
17.8355,3.4085
17.5186,3.4085
17.5186,3.2500
17.5186,3.1708
17.5186,2.9331
17.8355,2.9331
17.8355,3.0915
17.9940,3.0915
18.1524,3.0915
18.1524,2.9331
18.1524,2.7746
17.9940,2.7746
17.8355,2.7746
17.8355,2.9331
17.5186,2.9331
17.5186,2.7746
17.4394,2.7746
17.3602,2.7746
17.3602,2.6954
17.3602,2.6162
17.8355,2.6162
18.3109,2.6162
Z" />
    <path style="fill:#F2EDA1; fill-opacity:1.0000; stroke:none;fill-rule:evenodd;" d="M 16.8848,2.6954
16.8848,2.7746
16.9640,2.7746
17.0433,2.7746
17.0433,2.8539
17.0433,2.9331
16.8848,2.9331
16.7264,2.9331
16.7264,2.8539
16.7264,2.7746
16.5679,2.7746
16.4095,2.7746
16.4095,2.8539
16.4095,2.9331
16.4887,2.9331
16.5679,2.9331
16.5679,3.0123
16.5679,3.0915
16.6471,3.0915
16.7264,3.0915
16.7264,3.1708
16.7264,3.2500
16.8848,3.2500
17.0433,3.2500
17.0433,3.4085
17.0433,3.5669
16.9640,3.5669
16.8848,3.5669
16.8848,3.6461
16.8848,3.7254
16.5679,3.7254
16.2510,3.7254
16.2510,3.6461
16.2510,3.5669
16.1718,3.5669
16.0925,3.5669
16.0925,3.4877
16.0925,3.4085
16.2510,3.4085
16.4095,3.4085
16.4095,3.4877
16.4095,3.5669
16.5679,3.5669
16.7264,3.5669
16.7264,3.4877
16.7264,3.4085
16.6471,3.4085
16.5679,3.4085
16.5679,3.3292
16.5679,3.2500
16.4095,3.2500
16.2510,3.2500
16.2510,3.1708
16.2510,3.0915
16.1718,3.0915
16.0925,3.0915
16.0925,2.9331
16.0925,2.7746
16.1718,2.7746
16.2510,2.7746
16.2510,2.6954
16.2510,2.6162
16.5679,2.6162
16.8848,2.6162
Z" />
  </g>
  <g style="fill:#FF0000; fill-opacity:1.0000; 
stroke:#D0D2CD; stroke-width:0.0500; stroke-opacity:1; 
stroke-linecap:round; stroke-linejoin:round;">
    <path d="M1.7500 62.0000
L1.7500 3.5000
" />
    <path d="M11.2000 11.1500
L11.2000 54.3500
" />
    <path d="M76.5000 63.7500 A1.7500 1.7500 0.0 0 0 78.2500 62.0000" />
    <path d="M3.5000 1.7500 A1.7500 1.7500 0.0 0 0 1.7500 3.5000" />
    <path d="M78.2500 62.0000
L78.2500 3.5000
" />
    <path d="M1.7500 62.0000 A1.7500 1.7500 0.0 0 0 3.5000 63.7500" />
    <path d="M11.2000 54.3500
L68.8000 54.3500
" />
    <path d="M68.8000 11.1500
L11.2000 11.1500
" />
    <path d="M3.5000 1.7500
L76.5000 1.7500
" />
    <path d="M78.2500 3.5000 A1.7500 1.7500 0.0 0 0 76.5000 1.7500" />
    <path d="M68.8000 54.3500
L68.8000 11.1500
" />
    <path d="M20.7500 63.7500
L20.7500 65.5000
" />
    <path d="M72.2500 65.5000
L72.2500 63.7500
" />
    <path d="M3.5000 63.7500
L20.7500 63.7500
" />
    <path d="M72.2500 63.7500
L76.5000 63.7500
" />
    <path d="M20.7500 65.5000
L72.2500 65.5000
" />
  </g>
</svg>